Coordinates
version=1
nRows=8
nColumns=34
inDegrees=yes

Units are S.I. units (second, meters, Newtons, ...)
If the header above contains a line with 'inDegrees', this indicates whether rotational values are in degrees (yes) or radians (no).

endheader
time	pelvis_tilt	pelvis_list	pelvis_rotation	pelvis_tx	pelvis_ty	pelvis_tz	hip_flexion_r	hip_adduction_r	hip_rotation_r	knee_angle_r	ankle_angle_r	subtalar_angle_r	mtp_angle_r	hip_flexion_l	hip_adduction_l	hip_rotation_l	knee_angle_l	ankle_angle_l	subtalar_angle_l	mtp_angle_l	lumbar_extension	lumbar_bending	lumbar_rotation	arm_flex_r	arm_add_r	arm_rot_r	elbow_flex_r	pro_sup_r	arm_flex_l	arm_add_l	arm_rot_l	elbow_flex_l	pro_sup_l
      1.33333330	     -0.96737841	      0.68305914	     -3.21631311	      1.67127764	      0.87541197	      0.01330749	     -2.98765823	     -3.55252764	      0.37217874	      0.00000000	      0.71683460	    -24.85071567	      0.00000000	     -2.97917651	     -2.89780598	      4.53503231	      0.00000000	      2.51469498	    -10.41171667	      0.00000000	     -6.48603968	      0.72030602	     -1.05684636	     10.41158895	     -7.91839919	     37.17319025	     73.04777317	     87.15333102	     11.61056746	     -6.43466129	     37.90181094	     57.59281832	     81.50114399
      1.35000000	     -0.97685303	      0.68918691	     -3.21868762	      1.67110622	      0.87591784	      0.01298242	     -2.99335710	     -3.55124819	      0.37256613	      0.00000000	      0.71721279	    -24.85033027	      0.00000000	     -2.98076889	     -2.90221683	      4.53561774	      0.00000000	      2.51491756	    -10.41092916	      0.00000000	     -6.48536775	      0.71971425	     -1.05620809	     10.41086428	     -7.91806544	     37.17326371	     73.04749795	     87.15300470	     11.61080274	     -6.43624099	     37.90156096	     57.59247636	     81.50115130
      1.36666670	     -0.98604252	      0.67356754	     -3.22915123	      1.67112970	      0.87616486	      0.01269760	     -3.00570776	     -3.56911218	      0.37145028	      0.00000000	      0.71942365	    -24.84905359	      0.00000000	     -2.97734188	     -2.90614395	      4.53864741	      0.00000000	      2.51634657	    -10.40647034	      0.00000000	     -6.48314846	      0.71822494	     -1.05511920	     10.40622383	     -7.91767053	     37.17300463	     73.04474394	     87.15099542	     11.61395435	     -6.44363170	     37.90014338	     57.59074765	     81.50119814
      1.38333330	     -0.98650458	      0.66950606	     -3.23070198	      1.67111038	      0.87548715	      0.01277903	     -3.00719750	     -3.57367387	      0.37055805	      0.00000000	      0.71972266	    -24.84891869	      0.00000000	     -2.97873604	     -2.90582433	      4.53879899	      0.00012374	      2.51672248	    -10.40586116	      0.00000000	     -6.48305056	      0.71847032	     -1.05544945	     10.40544688	     -7.91804470	     37.17269841	     73.04402693	     87.15058305	     11.61489416	     -6.44466315	     37.89988227	     57.59045576	     81.50120754
      1.40000000	     -0.97438235	      0.68711503	     -3.31120439	      1.67126354	      0.87413028	      0.01308468	     -3.01027542	     -3.62973719	      0.30575114	      0.00000000	      0.73867918	    -24.85798049	      0.00000000	     -3.02616769	     -2.87222292	      4.52202352	      0.00000000	      2.56131383	    -10.40467234	      0.00000000	     -6.43473540	      0.73793188	     -1.08196048	     10.39201021	     -7.94247650	     37.14154441	     73.02172957	     87.12859179	     11.67137919	     -6.48515114	     37.88653514	     57.58514365	     81.50169963
      1.41666670	     -0.96917712	      0.68013284	     -3.30835813	      1.67129045	      0.87308037	      0.01343699	     -3.00939537	     -3.63426948	      0.30502598	      0.00000000	      0.73873219	    -24.85780516	      0.00000000	     -3.02609860	     -2.86956084	      4.52127798	      0.00035730	      2.56222622	    -10.40485996	      0.00000000	     -6.43458442	      0.73807567	     -1.08194757	     10.39247835	     -7.94285135	     37.14079030	     73.02151679	     87.12820255	     11.67139753	     -6.48547884	     37.88656227	     57.58486035	     81.50171297
      1.43333330	     -0.96466725	      0.69128034	     -3.30219791	      1.67139017	      0.87276665	      0.01392025	     -3.00969655	     -3.64114436	      0.29778753	      0.00000000	      0.74097137	    -24.86007109	      0.00000000	     -3.03182258	     -2.88032609	      4.51642583	      0.00000000	      2.57064178	    -10.40847667	      0.00000000	     -6.42615060	      0.73760618	     -1.08124624	     10.39724631	     -7.94275387	     37.13554041	     73.02347974	     87.12578508	     11.67205402	     -6.48938664	     37.88611410	     57.58399976	     81.50174264
      1.45000000	     -0.96325405	      0.68989957	     -3.30145604	      1.67138131	      0.87299930	      0.01398577	     -3.00870934	     -3.64238873	      0.29665571	      0.00000000	      0.74147141	    -24.86065511	      0.00000000	     -3.03227098	     -2.88036143	      4.51598562	      0.00000000	      2.57186177	    -10.40897393	      0.00000000	     -6.42450599	      0.73737881	     -1.08096691	     10.39767550	     -7.94240019	     37.13499672	     73.02396985	     87.12549615	     11.67192631	     -6.49019291	     37.88602243	     57.58388942	     81.50174077
